<svg xmlns="http://www.w3.org/2000/svg" viewBox="0 0 24 24">
    <path d="M6.73 6.9Zm13.96 1.8a5.41 5.41 0 0 0-1.95-2.44 10.01 10.01 0 0 1 .99 2.95c-1.1-2.73-2.96-3.83-4.47-6.23-.6-.94-.44-1-.52-.98a7.05 7.05 0 0 0-3.29 4.88c-.66.04-1.3.2-1.9.48a.24.24 0 0 0-.13.12.26.26 0 0 0-.02.17c0 .04.02.07.04.1a.24.24 0 0 0 .18.1l.1-.02h.02a4.75 4.75 0 0 1 1.96-.46 4.95 4.95 0 0 1 4.28 2.47 3.36 3.36 0 0 0-2.34-.56c3.5 1.74 2.55 7.73-2.27 7.51a4.2 4.2 0 0 1-4-3.6s.45-1.67 3.2-1.67c.3 0 1.15-.83 1.17-1.07 0-.08-1.7-.75-2.35-1.4l-.66-.64a2.97 2.97 0 0 0-.25-.19 4.48 4.48 0 0 1-.03-2.36 7.22 7.22 0 0 0-2.33 1.8c-.4-.49-.37-2.1-.34-2.43-.01-.02-.3.15-.33.17a8.3 8.3 0 0 0-3.15 4.83c-.18.81-.27 1.77-.27 2.08a9.69 9.69 0 0 0 9.7 9.69 9.6 9.6 0 0 0 9.54-8.05c.46-3.04-.58-5.2-.58-5.24Z"></path>
</svg>