<svg xmlns="http://www.w3.org/2000/svg" viewBox="0 0 24 24">
    <path stroke="currentColor" fill="none" d="M17.36 2H6.64A4.64 4.64 0 0 0 2 6.64v10.72A4.64 4.64 0 0 0 6.64 22h10.72A4.64 4.64 0 0 0 22 17.36V6.64A4.64 4.64 0 0 0 17.36 2Z"></path>
    <path fill="currentColor" d="M5.07 15.83h1.15v-4.92H5.07v4.92Zm.57-5.57c.36 0 .65-.28.65-.63A.63.63 0 0 0 5.64 9a.63.63 0 0 0-.64.63c0 .35.28.63.64.63Zm4.44-1.25c-1.96 0-3.19 1.34-3.19 3.47 0 2.14 1.23 3.47 3.19 3.47 1.95 0 3.18-1.33 3.18-3.47 0-2.13-1.23-3.47-3.18-3.47Zm0 1.03c1.2 0 1.95.95 1.95 2.44 0 1.5-.76 2.44-1.95 2.44-1.2 0-1.96-.95-1.96-2.44 0-1.5.76-2.44 1.96-2.44Zm3.67 3.9c.05 1.24 1.06 2 2.6 2 1.63 0 2.65-.8 2.65-2.07 0-1-.58-1.56-1.94-1.87l-.77-.18c-.82-.2-1.16-.45-1.16-.9 0-.56.5-.93 1.27-.93.76 0 1.29.38 1.34 1h1.15c-.03-1.18-1-1.98-2.48-1.98-1.46 0-2.5.8-2.5 2 0 .96.58 1.55 1.82 1.84l.87.2c.85.2 1.2.48 1.2.96 0 .56-.57.96-1.38.96-.82 0-1.44-.4-1.51-1.02h-1.16Z"></path>
</svg>