<svg xmlns="http://www.w3.org/2000/svg" viewBox="0 0 24 24">
    <path d="M12.32 6.84c.04.02.07.06.12.06.04 0 .1-.01.11-.06 0-.05-.07-.09-.12-.1-.07-.04-.16-.05-.22-.01-.02 0-.03.02-.02.04 0 .05.09.04.13.07Zm-.86.06c.05 0 .08-.04.12-.06.04-.03.12-.02.14-.07l-.03-.04c-.06-.03-.14-.02-.21 0-.05.03-.13.06-.13.12 0 .04.08.06.11.05Zm8.64 10.9c-.14-.16-.2-.46-.28-.78-.07-.31-.15-.65-.41-.87a1.05 1.05 0 0 0-.32-.2 4.52 4.52 0 0 0-.14-3.08 10.42 10.42 0 0 0-1.82-2.9c-.67-.85-1.31-1.65-1.3-2.82.02-1.8.2-5.13-2.96-5.13-4 0-3 4.04-3.05 5.28a4.53 4.53 0 0 1-.88 2.53c-.73.88-1.77 2.3-2.26 3.78-.24.7-.35 1.4-.25 2.08-.25.22-.44.57-.64.79-.17.16-.4.23-.67.32-.26.1-.55.23-.72.57a1 1 0 0 0-.11.48c0 .15.02.3.05.46.04.32.1.61.03.81-.2.57-.23.96-.09 1.24.15.29.45.41.79.48.67.14 1.59.1 2.31.5.78.4 1.56.54 2.19.4.45-.1.82-.38 1-.8.5 0 1.03-.2 1.9-.25.58-.05 1.3.2 2.15.16.02.09.05.18.1.26.32.66.92.96 1.57.9a2.85 2.85 0 0 0 1.88-1.09c.54-.64 1.41-.9 2-1.25.28-.18.52-.4.54-.72.01-.32-.18-.67-.61-1.16ZM12.43 5.42c.39-.87 1.34-.85 1.72-.02.26.56.14 1.21-.17 1.58-.06-.03-.23-.1-.49-.19.04-.05.12-.1.15-.18.2-.46 0-1.05-.35-1.07-.29-.01-.54.43-.46.9a2.78 2.78 0 0 0-.51-.17c-.04-.27-.01-.57.11-.85Zm-1.59-.45c.4 0 .82.56.75 1.3-.14.05-.28.1-.4.19.05-.35-.13-.79-.37-.77-.33.03-.39.83-.07 1.1.03.03.07 0-.23.22-.61-.57-.41-2.04.32-2.04Zm-.53 2.37.55-.4c.19-.18.53-.56 1.1-.56.27 0 .6.09 1 .34.25.16.45.18.89.37.33.13.53.38.4.7-.1.29-.42.57-.88.72-.43.14-.77.62-1.5.58a1.27 1.27 0 0 1-.37-.08c-.3-.14-.47-.41-.78-.59-.33-.19-.51-.4-.57-.6-.06-.19 0-.35.16-.48Zm.13 13.05c-.1 1.37-1.71 1.34-2.94.7-1.17-.62-2.68-.25-2.99-.85-.1-.19-.1-.5.1-1.04.1-.3.03-.63-.02-.94-.05-.3-.07-.58.04-.78.13-.26.33-.35.57-.44.4-.14.46-.13.77-.39.21-.22.37-.5.56-.7.2-.21.39-.32.69-.27.31.05.59.27.85.63l.77 1.39c.37.77 1.68 1.89 1.6 2.69Zm-.05-1.01a8.36 8.36 0 0 0-.57-.77c.28 0 .56-.09.66-.35.09-.24 0-.58-.3-.97a5.74 5.74 0 0 0-1.49-1.27 2.11 2.11 0 0 1-.96-1.17 2.64 2.64 0 0 1-.01-1.37c.2-.9.73-1.77 1.06-2.31.1-.07.03.12-.34.8-.33.64-.95 2.09-.1 3.23a6.5 6.5 0 0 1 .54-2.4c.47-1.08 1.46-2.93 1.53-4.4.05.02.18.12.25.15.18.1.31.26.49.4.48.4 1.11.36 1.65.05.25-.14.44-.3.63-.35.38-.12.69-.34.87-.59.3 1.2 1 2.9 1.45 3.74.24.45.71 1.39.92 2.53.13 0 .27.01.43.05.54-1.4-.46-2.9-.91-3.32-.19-.18-.2-.25-.1-.25a4.83 4.83 0 0 1 1.37 2.3c.1.46.13.93.02 1.4.64.26 1.4.7 1.2 1.36h-.17c.13-.4-.15-.69-.89-1.02-.77-.34-1.4-.34-1.5.49-.47.16-.71.57-.83 1.06-.11.44-.14.97-.17 1.56-.02.3-.14.7-.27 1.13-1.25.9-3 1.29-4.46.29Zm10.05-.45c-.04.65-1.6.77-2.47 1.81a2.6 2.6 0 0 1-1.7 1 1.28 1.28 0 0 1-1.32-.75c-.18-.44-.1-.9.05-1.42.14-.56.35-1.13.38-1.59.03-.6.07-1.11.17-1.51.1-.4.25-.67.53-.82l.04-.02c.03.51.29 1.04.73 1.15.5.13 1.2-.3 1.5-.64.36-.01.62-.03.89.2.38.33.27 1.18.67 1.63.4.45.54.76.53.96Zm-9.98-11.1.32.28c.25.2.61.4 1.06.4.46 0 .88-.22 1.25-.41.19-.1.42-.28.57-.4.16-.14.23-.25.12-.27-.1 0-.1.1-.23.2-.17.13-.38.3-.54.39-.3.16-.76.4-1.17.4-.4 0-.73-.2-.97-.38l-.3-.27c-.06-.06-.08-.18-.17-.2-.06 0-.07.15.06.26Z"></path>
</svg>