<svg xmlns="http://www.w3.org/2000/svg" viewBox="-73 0 1170 1024" version="1.1">
    <path d="M512 1024C229.888 1024 0 794.112 0 512S229.888 0 512 0s512 229.888 512 512-229.888 512-512 512z m0-960c-246.784 0-448 201.216-448 448s201.216 448 448 448 448-201.216 448-448-201.216-448-448-448z" />
    <path d="M272.384 512m-79.872 0a79.872 79.872 0 1 0 159.744 0 79.872 79.872 0 1 0-159.744 0Z" />
    <path d="M512 512m-79.872 0a79.872 79.872 0 1 0 159.744 0 79.872 79.872 0 1 0-159.744 0Z" />
    <path d="M751.616 512m-79.872 0a79.872 79.872 0 1 0 159.744 0 79.872 79.872 0 1 0-159.744 0Z" />
</svg>